<?xml version="1.0" standalone="no"?>
<!DOCTYPE svg PUBLIC "-//W3C//DTD SVG 20010904//EN"
 "http://www.w3.org/TR/2001/REC-SVG-20010904/DTD/svg10.dtd">
<svg version="1.0" xmlns="http://www.w3.org/2000/svg"
 width="3261.000000pt" height="470.000000pt" viewBox="0 0 3261.000000 470.000000"
 preserveAspectRatio="xMidYMid meet">
<metadata>
Created by potrace 1.15, written by Peter Selinger 2001-2017
</metadata>
<g transform="translate(0.000000,470.000000) scale(0.100000,-0.100000)"
fill="#000000" stroke="none">
<path d="M3653 4686 c-60 -19 -143 -68 -362 -215 l-193 -129 -70 29 c-269 111
-530 161 -838 161 -352 0 -645 -66 -959 -218 -661 -318 -1111 -940 -1216
-1679 -19 -131 -19 -459 0 -590 45 -317 162 -638 321 -882 l55 -86 -36 -72
c-35 -68 -37 -78 -34 -147 4 -63 9 -81 32 -112 36 -47 96 -77 166 -83 51 -5
74 -1 186 31 12 4 30 -1 44 -12 l23 -19 -119 -81 c-198 -134 -285 -248 -286
-375 -1 -80 24 -131 82 -172 41 -29 47 -30 149 -30 137 1 145 4 433 196 l225
150 57 -26 c550 -243 1229 -239 1777 11 267 121 474 268 680 481 326 336 528
750 597 1223 22 154 21 455 -1 605 -52 340 -167 644 -346 910 l-47 70 36 65
c32 58 36 73 36 141 0 65 -4 81 -27 116 -55 84 -186 112 -325 69 -61 -18 -64
-18 -83 -1 -19 17 -17 19 103 102 136 93 215 171 253 249 66 135 33 264 -81
315 -48 22 -169 24 -232 5z"/>
<path d="M5705 3433 c-616 -50 -890 -226 -936 -603 -12 -99 -1 -223 25 -299
75 -212 267 -352 569 -417 39 -8 243 -37 452 -65 209 -27 405 -56 435 -65 115
-33 160 -75 160 -150 0 -79 -94 -129 -265 -141 -204 -13 -376 51 -403 150 -4
15 -10 27 -14 27 -5 0 -228 0 -498 0 l-490 0 0 -30 c0 -51 30 -179 54 -234 33
-74 106 -165 174 -219 246 -193 644 -274 1210 -247 605 29 941 146 1105 386
73 107 98 192 104 349 8 213 -33 333 -156 456 -77 77 -201 143 -343 183 -48
14 -288 55 -534 91 -246 36 -479 73 -518 81 -102 21 -155 49 -173 91 -22 54 5
99 81 137 51 26 72 30 166 34 200 8 345 -37 401 -126 16 -25 29 -54 29 -64 0
-17 24 -18 480 -18 l480 0 0 23 c0 12 -7 54 -15 92 -39 184 -160 333 -346 424
-234 114 -533 163 -983 159 -116 -1 -229 -3 -251 -5z"/>
<path d="M13870 3433 c-417 -42 -679 -140 -883 -332 -198 -187 -297 -457 -297
-811 0 -671 370 -1048 1110 -1130 131 -15 483 -15 610 -1 591 68 949 325 1065
766 47 177 58 399 29 593 -80 543 -455 846 -1128 911 -100 10 -423 13 -506 4z
m395 -578 c218 -56 338 -211 364 -472 35 -337 -97 -581 -352 -649 -86 -23
-203 -27 -294 -11 -205 38 -339 166 -390 374 -24 102 -22 305 5 406 51 189
163 304 342 351 74 20 250 20 325 1z"/>
<path d="M19785 3429 c-566 -57 -924 -290 -1064 -693 -106 -302 -88 -722 43
-990 181 -371 550 -563 1143 -595 459 -25 816 43 1026 196 26 20 50 33 52 31
3 -2 23 -43 45 -91 l40 -87 185 0 185 0 0 625 0 625 -585 0 -585 0 0 -240 0
-240 165 -2 165 -3 -24 -50 c-27 -59 -94 -123 -163 -159 -90 -45 -167 -60
-308 -60 -115 0 -139 3 -208 27 -42 15 -96 39 -119 53 -110 70 -194 200 -224
349 -25 121 -16 304 20 410 47 136 143 257 249 312 149 76 362 82 499 12 57
-29 141 -110 169 -164 l24 -45 452 0 c249 0 453 2 453 6 0 38 -41 168 -75 240
-129 268 -437 449 -885 519 -124 20 -538 28 -675 14z"/>
<path d="M7450 3100 l0 -280 380 0 380 0 0 -810 0 -810 410 0 410 0 0 810 0
810 380 0 380 0 0 280 0 280 -1170 0 -1170 0 0 -280z"/>
<path d="M9970 2290 l0 -1090 420 0 420 0 0 331 0 330 308 -3 c306 -3 307 -3
352 -28 88 -49 103 -97 119 -365 6 -93 16 -190 23 -215 l14 -45 457 -3 c449
-2 457 -2 457 17 0 11 -11 37 -25 57 -45 66 -68 195 -84 479 -18 300 -54 383
-198 462 l-52 29 54 27 c103 54 201 174 245 300 31 87 39 294 15 386 -53 203
-183 327 -400 381 -151 37 -250 40 -1200 40 l-925 0 0 -1090z m1462 520 c111
-18 159 -57 173 -143 15 -87 -36 -170 -122 -198 -26 -9 -140 -14 -355 -16
l-318 -4 0 185 0 186 283 0 c155 0 308 -4 339 -10z"/>
<path d="M15800 2290 l0 -1090 390 0 390 0 2 624 3 624 430 -623 430 -624 463
-1 462 0 0 1090 0 1090 -400 0 -400 0 -2 -610 -3 -611 -395 611 -395 610 -487
0 -488 0 0 -1090z"/>
<path d="M21522 3366 c2 -8 147 -498 323 -1090 l320 -1076 396 0 c308 0 398 3
401 13 3 6 74 311 158 677 84 366 156 668 159 672 3 4 76 -301 161 -678 l155
-684 404 2 403 3 324 1084 c178 597 324 1086 324 1088 0 2 -180 3 -399 3 -372
0 -400 -1 -405 -17 -3 -10 -71 -342 -151 -737 -80 -396 -147 -721 -148 -723
-2 -1 -65 264 -141 590 -76 325 -154 658 -173 740 l-35 147 -309 0 c-170 0
-309 -3 -309 -6 0 -18 -333 -1450 -339 -1456 -4 -4 -76 313 -160 705 -84 391
-155 722 -158 735 l-5 22 -400 0 c-336 0 -399 -2 -396 -14z"/>
<path d="M25180 2290 l0 -1090 1155 0 1155 0 0 285 0 285 -740 0 -740 0 0 140
0 140 570 0 570 0 0 270 0 270 -570 0 -570 0 0 125 0 125 705 0 705 0 0 270 0
270 -1120 0 -1120 0 0 -1090z"/>
<path d="M27690 2290 l0 -1090 1055 0 1055 0 0 305 0 305 -640 0 -640 0 0 785
0 785 -415 0 -415 0 0 -1090z"/>
<path d="M30000 2290 l0 -1090 1050 0 1050 0 0 305 0 305 -640 0 -640 0 0 785
0 785 -410 0 -410 0 0 -1090z"/>
<path d="M32305 1611 c-166 -77 -167 -308 -1 -393 31 -16 53 -19 107 -16 83 4
140 39 176 108 21 38 24 56 21 116 -3 59 -8 78 -32 112 -56 82 -180 115 -271
73z m161 -41 c53 -20 104 -100 104 -164 0 -32 -40 -105 -68 -125 -73 -50 -148
-49 -212 5 -42 36 -60 74 -60 129 0 123 116 200 236 155z"/>
<path d="M32300 1420 l0 -120 35 0 c35 0 35 0 35 45 0 25 5 45 11 45 5 0 19
-20 30 -45 19 -42 22 -45 60 -45 l39 0 -24 48 -24 47 24 28 c31 36 30 62 -1
92 -22 22 -32 25 -105 25 l-80 0 0 -120z"/>
</g>
</svg>
